{
    "asset" : {
        "generator" : "Khronos glTF Blender I/O v1.8.19",
        "version" : "2.0"
    },
    "extensionsUsed" : [
        "KHR_materials_unlit"
    ],
    "scene" : 0,
    "scenes" : [
        {
            "name" : "Scene",
            "nodes" : [
                38
            ]
        }
    ],
    "nodes" : [
        {
            "name" : "spine.012_66",
            "rotation" : [
                0.6611340641975403,
                -0.031995486468076706,
                0.014549046754837036,
                0.7494440674781799
            ],
            "scale" : [
                0.9999998807907104,
                1.000000238418579,
                0.9999999403953552
            ],
            "translation" : [
                5.085729881670886e-08,
                0.3773004114627838,
                6.863043466864838e-08
            ]
        },
        {
            "children" : [
                0
            ],
            "name" : "spine.011_67",
            "rotation" : [
                0.15483532845973969,
                0.10429864376783371,
                -0.17864997684955597,
                0.9660393595695496
            ],
            "scale" : [
                1,
                1.0000001192092896,
                1.0000001192092896
            ],
            "translation" : [
                -1.301488072869006e-08,
                0.14937695860862732,
                5.713324924272456e-08
            ]
        },
        {
            "children" : [
                1
            ],
            "name" : "spine.010_68",
            "rotation" : [
                -0.011471938341856003,
                -0.025390349328517914,
                0.0013048804830759764,
                0.999610960483551
            ],
            "scale" : [
                1,
                1.0000001192092896,
                1.0000001192092896
            ],
            "translation" : [
                -1.3597867720704926e-08,
                0.15561072528362274,
                -1.0051412857592368e-07
            ]
        },
        {
            "children" : [
                2
            ],
            "name" : "spine.009_69",
            "rotation" : [
                -0.504818856716156,
                -0.00955037958920002,
                0.08578813076019287,
                0.8588988184928894
            ],
            "scale" : [
                0.9999998211860657,
                0.9999997615814209,
                0.9999997019767761
            ],
            "translation" : [
                1.9935185946451384e-08,
                0.5163019895553589,
                -1.1048327053231333e-07
            ]
        },
        {
            "name" : "front_toe.L_70",
            "rotation" : [
                -0.012988177128136158,
                -0.8658780455589294,
                0.5000297427177429,
                0.007538053207099438
            ],
            "scale" : [
                1.0000001192092896,
                1.0000007152557373,
                1.0000004768371582
            ],
            "translation" : [
                2.7541576130829526e-08,
                0.19293095171451569,
                -1.6732775520722498e-07
            ]
        },
        {
            "children" : [
                4
            ],
            "name" : "front_foot.L_71",
            "rotation" : [
                0.04911109432578087,
                0.026830380782485008,
                -0.019756952300667763,
                0.9982374906539917
            ],
            "scale" : [
                1,
                1.0000001192092896,
                1.0000001192092896
            ],
            "translation" : [
                1.0176780307347144e-08,
                0.6438049077987671,
                1.1245467135267972e-07
            ]
        },
        {
            "children" : [
                5
            ],
            "name" : "front_shin.L_72",
            "rotation" : [
                -0.527707040309906,
                -0.016507040709257126,
                0.07869134843349457,
                0.8456125259399414
            ],
            "scale" : [
                1,
                0.9999998807907104,
                1
            ],
            "translation" : [
                -6.931457363634763e-08,
                0.46822935342788696,
                7.212549224533404e-09
            ]
        },
        {
            "children" : [
                6
            ],
            "name" : "front_thigh.L_73",
            "rotation" : [
                0.675579845905304,
                0.07368826121091843,
                0.1979108452796936,
                0.7063944935798645
            ],
            "scale" : [
                0.9999997019767761,
                0.9999998807907104,
                0.9999997615814209
            ],
            "translation" : [
                0.02993875928223133,
                0.41833075881004333,
                -0.03676726669073105
            ]
        },
        {
            "children" : [
                7
            ],
            "name" : "shoulder.L_74",
            "rotation" : [
                0.4658881723880768,
                0.20729078352451324,
                -0.12238284200429916,
                0.8514700531959534
            ],
            "scale" : [
                1.000000238418579,
                0.9999998807907104,
                1.0000001192092896
            ],
            "translation" : [
                0.11299525201320648,
                0.3838934600353241,
                0.024403978139162064
            ]
        },
        {
            "name" : "front_toe.R_75",
            "rotation" : [
                -0.1341443508863449,
                0.9410512447357178,
                -0.25947341322898865,
                0.1705920249223709
            ],
            "scale" : [
                0.9999997615814209,
                0.9999998807907104,
                1
            ],
            "translation" : [
                1.1103609409701676e-07,
                0.19293051958084106,
                -4.311078782848199e-08
            ]
        },
        {
            "children" : [
                9
            ],
            "name" : "front_foot.R_76",
            "rotation" : [
                -0.0934218317270279,
                0.02588530257344246,
                0.01353412214666605,
                0.9951980710029602
            ],
            "scale" : [
                1,
                1,
                0.9999998807907104
            ],
            "translation" : [
                8.436043863468967e-09,
                0.6438049077987671,
                -1.3204797255639278e-07
            ]
        },
        {
            "children" : [
                10
            ],
            "name" : "front_shin.R_77",
            "rotation" : [
                -0.6285268664360046,
                0.016029398888349533,
                -0.13639597594738007,
                0.7655673027038574
            ],
            "scale" : [
                0.9999998807907104,
                0.9999998211860657,
                0.9999998211860657
            ],
            "translation" : [
                -3.130856462973952e-09,
                0.46822935342788696,
                9.472514506114749e-08
            ]
        },
        {
            "children" : [
                11
            ],
            "name" : "front_thigh.R_78",
            "rotation" : [
                0.7137975692749023,
                -0.10277444869279861,
                -0.20423980057239532,
                0.6619793176651001
            ],
            "scale" : [
                1.0000001192092896,
                1,
                1.0000003576278687
            ],
            "translation" : [
                -0.005645711440593004,
                0.4072971045970917,
                -0.04333362728357315
            ]
        },
        {
            "children" : [
                12
            ],
            "name" : "shoulder.R_79",
            "rotation" : [
                0.46588802337646484,
                -0.20729202032089233,
                0.1223832443356514,
                0.851469874382019
            ],
            "scale" : [
                1.0000001192092896,
                0.9999998807907104,
                1
            ],
            "translation" : [
                -0.12200824171304703,
                0.279884934425354,
                0.04834919795393944
            ]
        },
        {
            "name" : "breast.L_80",
            "rotation" : [
                0.69691401720047,
                0.036643657833337784,
                -0.0854390412569046,
                0.7111035585403442
            ],
            "scale" : [
                1.0000001192092896,
                0.9999999403953552,
                1.0000001192092896
            ],
            "translation" : [
                0.06960151344537735,
                0.03458826616406441,
                0.1450548768043518
            ]
        },
        {
            "name" : "breast.R_81",
            "rotation" : [
                0.6764140725135803,
                -0.029490245506167412,
                0.06814441084861755,
                0.732769250869751
            ],
            "scale" : [
                1,
                1,
                0.9999998211860657
            ],
            "translation" : [
                -0.069601871073246,
                0.03458842262625694,
                0.14505469799041748
            ]
        },
        {
            "children" : [
                3,
                8,
                13,
                14,
                15
            ],
            "name" : "spine.008_82",
            "rotation" : [
                0.07169866561889648,
                -4.899750820186455e-06,
                0.0008459234377369285,
                0.9974259734153748
            ],
            "translation" : [
                3.4498355283574256e-09,
                0.21713310480117798,
                -3.2330257915269556e-10
            ]
        },
        {
            "children" : [
                16
            ],
            "name" : "spine.007_83",
            "rotation" : [
                0.0010564816184341908,
                0.9695852398872375,
                -0.24475161731243134,
                0.00018251934670843184
            ],
            "scale" : [
                0.9999998211860657,
                0.9999999403953552,
                1
            ],
            "translation" : [
                -3.891295730085176e-09,
                0.23579645156860352,
                -1.2471103261191274e-08
            ]
        },
        {
            "children" : [
                17
            ],
            "name" : "spine.006_84",
            "rotation" : [
                -0.0014110198244452477,
                -0.03795158118009567,
                0.9992767572402954,
                0.0019291462376713753
            ],
            "scale" : [
                1,
                1.0000007152557373,
                1.000009536743164
            ],
            "translation" : [
                3.1930715849171065e-09,
                -0.2704330086708069,
                5.8032146199593626e-08
            ]
        },
        {
            "name" : "pelvis.L_85",
            "rotation" : [
                -0.2965241074562073,
                0.7964091897010803,
                -0.26181331276893616,
                0.4574490785598755
            ],
            "scale" : [
                0.9999997615814209,
                0.9999998211860657,
                0.9999998807907104
            ],
            "translation" : [
                0.0961303561925888,
                0.322932630777359,
                -0.3435824513435364
            ]
        },
        {
            "name" : "pelvis.R_86",
            "rotation" : [
                -0.32467859983444214,
                -0.7825594544410706,
                0.28677815198898315,
                0.44714969396591187
            ],
            "scale" : [
                0.9999998211860657,
                1,
                1.000000238418579
            ],
            "translation" : [
                -0.09424784779548645,
                0.33970174193382263,
                -0.34066468477249146
            ]
        },
        {
            "name" : "toe.L_87",
            "rotation" : [
                -0.15316727757453918,
                0.9751650094985962,
                0.008371097035706043,
                0.15975914895534515
            ],
            "scale" : [
                1.0000001192092896,
                1,
                1.000000238418579
            ],
            "translation" : [
                7.964692372297577e-08,
                0.4453093707561493,
                1.1736729277345148e-07
            ]
        },
        {
            "children" : [
                21
            ],
            "name" : "foot.L_88",
            "rotation" : [
                -0.5309600830078125,
                -0.033447265625,
                -0.04669446125626564,
                0.8454480171203613
            ],
            "scale" : [
                0.9999999403953552,
                1.0000001192092896,
                1
            ],
            "translation" : [
                1.0418257367916794e-08,
                0.6681274175643921,
                7.892919029472978e-08
            ]
        },
        {
            "children" : [
                22
            ],
            "name" : "shin.L_89",
            "rotation" : [
                0.8988875150680542,
                0.014283888973295689,
                -0.051481712609529495,
                0.43491020798683167
            ],
            "scale" : [
                0.9999998807907104,
                0.9999999403953552,
                0.9999998807907104
            ],
            "translation" : [
                1.5510745754454547e-07,
                0.424530953168869,
                6.39738360064257e-08
            ]
        },
        {
            "children" : [
                23
            ],
            "name" : "thigh.L_90",
            "rotation" : [
                -0.998160183429718,
                -0.02077043242752552,
                -0.05613953620195389,
                0.009657885879278183
            ],
            "scale" : [
                0.9999998807907104,
                1.0000004768371582,
                1.000000238418579
            ],
            "translation" : [
                0.3076752722263336,
                0.24427185952663422,
                -0.15005624294281006
            ]
        },
        {
            "name" : "toe.R_91",
            "rotation" : [
                0.03158772736787796,
                -0.9990145564079285,
                -0.013085522688925266,
                0.02830108441412449
            ],
            "scale" : [
                0.9999999403953552,
                1.0000001192092896,
                0.9999997615814209
            ],
            "translation" : [
                5.4881326150280074e-08,
                0.4453093409538269,
                -9.668603695445199e-08
            ]
        },
        {
            "children" : [
                25
            ],
            "name" : "foot.R_92",
            "rotation" : [
                -0.505304753780365,
                -0.009893241338431835,
                0.016573600471019745,
                0.8627250790596008
            ],
            "scale" : [
                0.9999997019767761,
                0.9999998211860657,
                0.9999999403953552
            ],
            "translation" : [
                -4.535368525182548e-09,
                0.6681271195411682,
                6.551874065507945e-08
            ]
        },
        {
            "children" : [
                26
            ],
            "name" : "shin.R_93",
            "rotation" : [
                0.9222021698951721,
                -0.00015745798009447753,
                -0.04332899674773216,
                0.38427308201789856
            ],
            "scale" : [
                1.0000001192092896,
                1,
                1.0000001192092896
            ],
            "translation" : [
                2.1794745563852302e-08,
                0.42453089356422424,
                4.033739031683581e-08
            ]
        },
        {
            "children" : [
                27
            ],
            "name" : "thigh.R_94",
            "rotation" : [
                0.9979339241981506,
                -0.0068949065171182156,
                0.009167086333036423,
                0.0632164254784584
            ],
            "translation" : [
                -0.2801981270313263,
                0.24427169561386108,
                -0.15005531907081604
            ]
        },
        {
            "children" : [
                18,
                19,
                20,
                24,
                28
            ],
            "name" : "spine.005_95",
            "rotation" : [
                0.0035513120237737894,
                -0.08825130760669708,
                -0.9960918426513672,
                0.00040697120130062103
            ],
            "scale" : [
                1.0000001192092896,
                0.9999998807907104,
                0.9999999403953552
            ],
            "translation" : [
                -5.4389213133276826e-09,
                0.33999496698379517,
                6.508702909968633e-08
            ]
        },
        {
            "children" : [
                29
            ],
            "name" : "spine.004_96",
            "rotation" : [
                0.7086846232414246,
                -0.07581059634685516,
                0.6960258483886719,
                0.08698800951242447
            ],
            "scale" : [
                1,
                1,
                1.0000001192092896
            ],
            "translation" : [
                0.522051990032196,
                0.42650237679481506,
                0.003669208148494363
            ]
        },
        {
            "children" : [
                30
            ],
            "name" : "GLTF_created_2_rootJoint",
            "rotation" : [
                1,
                5.088690720462098e-16,
                7.574776361707336e-09,
                6.339203650895797e-08
            ]
        },
        {
            "mesh" : 0,
            "name" : "Object_79",
            "skin" : 0
        },
        {
            "name" : "Plane.005_97"
        },
        {
            "children" : [
                32,
                33,
                31
            ],
            "name" : "GLTF_created_2"
        },
        {
            "children" : [
                34
            ],
            "name" : "metarig.002_98",
            "scale" : [
                0.6176301836967468,
                0.6176301836967468,
                0.6176301836967468
            ],
            "translation" : [
                -0.12210901826620102,
                -0.5946783423423767,
                0.044441066682338715
            ]
        },
        {
            "children" : [
                35
            ],
            "name" : "GLTF_SceneRootNode",
            "rotation" : [
                0.7071068286895752,
                0,
                0,
                0.7071068286895752
            ]
        },
        {
            "children" : [
                36
            ],
            "name" : "root"
        },
        {
            "children" : [
                37
            ],
            "name" : "Sketchfab_model",
            "rotation" : [
                -0.7071068286895752,
                0,
                0,
                0.7071068286895752
            ]
        }
    ],
    "materials" : [
        {
            "doubleSided" : true,
            "extensions" : {
                "KHR_materials_unlit" : {}
            },
            "name" : "Material.001",
            "pbrMetallicRoughness" : {
                "baseColorTexture" : {
                    "index" : 0
                },
                "metallicFactor" : 0,
                "roughnessFactor" : 0.9
            }
        }
    ],
    "meshes" : [
        {
            "name" : "Object_2",
            "primitives" : [
                {
                    "attributes" : {
                        "POSITION" : 0,
                        "NORMAL" : 1,
                        "TEXCOORD_0" : 2,
                        "JOINTS_0" : 3,
                        "WEIGHTS_0" : 4
                    },
                    "indices" : 5,
                    "material" : 0
                }
            ]
        }
    ],
    "textures" : [
        {
            "sampler" : 0,
            "source" : 0
        }
    ],
    "images" : [
        {
            "bufferView" : 6,
            "mimeType" : "image/png",
            "name" : "Material.001_baseColor"
        }
    ],
    "skins" : [
        {
            "inverseBindMatrices" : 6,
            "joints" : [
                31,
                30,
                29,
                18,
                17,
                16,
                3,
                2,
                1,
                0,
                8,
                7,
                6,
                5,
                4,
                13,
                12,
                11,
                10,
                9,
                14,
                15,
                19,
                20,
                24,
                23,
                22,
                21,
                28,
                27,
                26,
                25
            ],
            "name" : "GLTF_created_2"
        }
    ],
    "accessors" : [
        {
            "bufferView" : 0,
            "componentType" : 5126,
            "count" : 3057,
            "max" : [
                0.47593367099761963,
                -0.19504739344120026,
                0.298583060503006
            ],
            "min" : [
                -1.3499021530151367,
                -1.830483317375183,
                -0.15307137370109558
            ],
            "type" : "VEC3"
        },
        {
            "bufferView" : 1,
            "componentType" : 5126,
            "count" : 3057,
            "type" : "VEC3"
        },
        {
            "bufferView" : 2,
            "componentType" : 5126,
            "count" : 3057,
            "type" : "VEC2"
        },
        {
            "bufferView" : 3,
            "componentType" : 5121,
            "count" : 3057,
            "type" : "VEC4"
        },
        {
            "bufferView" : 4,
            "componentType" : 5126,
            "count" : 3057,
            "type" : "VEC4"
        },
        {
            "bufferView" : 5,
            "componentType" : 5123,
            "count" : 12225,
            "type" : "SCALAR"
        },
        {
            "bufferView" : 7,
            "componentType" : 5126,
            "count" : 32,
            "type" : "MAT4"
        }
    ],
    "bufferViews" : [
        {
            "buffer" : 0,
            "byteLength" : 36684,
            "byteOffset" : 0
        },
        {
            "buffer" : 0,
            "byteLength" : 36684,
            "byteOffset" : 36684
        },
        {
            "buffer" : 0,
            "byteLength" : 24456,
            "byteOffset" : 73368
        },
        {
            "buffer" : 0,
            "byteLength" : 12228,
            "byteOffset" : 97824
        },
        {
            "buffer" : 0,
            "byteLength" : 48912,
            "byteOffset" : 110052
        },
        {
            "buffer" : 0,
            "byteLength" : 24450,
            "byteOffset" : 158964
        },
        {
            "buffer" : 0,
            "byteLength" : 2741993,
            "byteOffset" : 183416
        },
        {
            "buffer" : 0,
            "byteLength" : 2048,
            "byteOffset" : 2925412
        }
    ],
    "samplers" : [
        {
            "magFilter" : 9729,
            "minFilter" : 9987
        }
    ],
    "buffers" : [
        {
            "byteLength" : 2927460,
            "uri" : "data:application/octet-stream;base64,"
        }
    ]
}
